<?xml version="1.0" encoding="UTF-8" standalone="no"?>
<!DOCTYPE svg PUBLIC "-//W3C//DTD SVG 1.1//EN" "http://www.w3.org/Graphics/SVG/1.1/DTD/svg11.dtd">
<svg width="100%" height="100%" viewBox="0 0 24 24" version="1.1" xmlns="http://www.w3.org/2000/svg" xmlns:xlink="http://www.w3.org/1999/xlink" xml:space="preserve" xmlns:serif="http://www.serif.com/" style="fill-rule:evenodd;clip-rule:evenodd;stroke-linejoin:round;stroke-miterlimit:2;">
    <path d="M22,7L15,7L15,5L22,5L22,7ZM23.726,17C23.284,18.297 21.697,20 18.625,20C15.551,20 13.061,18.271 13.061,14.325C13.061,10.415 15.386,8.405 18.527,8.405C21.609,8.405 23.491,10.187 23.902,12.831C23.98,13.337 24.011,14.019 23.997,14.971L15.97,14.971C16.1,18.182 19.453,18.283 20.558,17L23.726,17ZM16.04,13L21.005,13C20.9,11.453 19.869,10.781 18.528,10.781C17.062,10.781 16.251,11.549 16.04,13ZM6.466,19.988L-0,19.988L-0,5.021L6.953,5.021C12.429,5.102 12.533,10.465 9.673,11.927C13.134,13.187 13.25,19.988 6.466,19.988ZM3,11L6.584,11C9.092,11 9.49,8 6.272,8L3,8L3,11ZM6.391,14L3,14L3,17.016L6.341,17.016C9.396,17.016 9.209,14 6.391,14Z" style="fill-rule:nonzero;"/>
</svg>
