<?xml version="1.0" encoding="UTF-8" standalone="no"?>
<!DOCTYPE svg PUBLIC "-//W3C//DTD SVG 1.1//EN" "http://www.w3.org/Graphics/SVG/1.1/DTD/svg11.dtd">
<svg width="100%" height="100%" viewBox="0 0 21 27" version="1.1" xmlns="http://www.w3.org/2000/svg" xmlns:xlink="http://www.w3.org/1999/xlink" xml:space="preserve" xmlns:serif="http://www.serif.com/" style="fill-rule:evenodd;clip-rule:evenodd;stroke-linecap:round;stroke-linejoin:bevel;stroke-miterlimit:1.5;">
    <g transform="matrix(1,0,0,1,-281.877,-818.527)">
        <g transform="matrix(0.177845,0,0,0.205629,241.916,618.696)">
            <path d="M306.905,1009.92C306.905,1003.06 300.475,997.495 292.544,997.495C277.521,997.495 254.079,997.495 239.056,997.495C231.125,997.495 224.695,1003.06 224.694,1009.92C224.694,1029.53 224.694,1067.43 224.694,1087.04C224.695,1093.9 231.125,1099.46 239.056,1099.46C254.079,1099.46 277.521,1099.46 292.544,1099.46C300.475,1099.46 306.905,1093.9 306.905,1087.04C306.905,1067.43 306.905,1029.53 306.905,1009.92ZM241.563,1012.09L241.563,1084.88L290.037,1084.88L290.037,1012.09L241.563,1012.09Z" style="fill:rgb(63,255,110);"/>
        </g>
        <g transform="matrix(1,0,0,1,-8.28645,28.5099)">
            <path d="M299.249,791.517L307.058,791.517C307.566,791.517 308.052,791.719 308.411,792.077C308.769,792.436 308.971,792.923 308.971,793.43L308.971,805.206" style="fill:none;stroke:rgb(63,255,110);stroke-width:3px;"/>
        </g>
    </g>
</svg>
