<?xml version="1.0" encoding="UTF-8" standalone="no"?>
<!DOCTYPE svg PUBLIC "-//W3C//DTD SVG 1.1//EN" "http://www.w3.org/Graphics/SVG/1.1/DTD/svg11.dtd">
<svg width="100%" height="100%" viewBox="0 0 28 21" version="1.1" xmlns="http://www.w3.org/2000/svg" xmlns:xlink="http://www.w3.org/1999/xlink" xml:space="preserve" xmlns:serif="http://www.serif.com/" style="fill-rule:evenodd;clip-rule:evenodd;stroke-linejoin:round;stroke-miterlimit:2;">
    <g transform="matrix(1,0,0,1,-255.866,-761.592)">
        <g transform="matrix(0.492662,0,0,0.492662,-391.559,-5740.67)">
            <g transform="matrix(0.619455,0,0,0.619455,638.199,12747.9)">
                <path d="M1180.75,733.469C1180.75,729.828 1177.8,726.877 1174.15,726.877C1157.59,726.877 1114.34,726.877 1097.77,726.877C1094.13,726.877 1091.18,729.828 1091.18,733.469C1091.18,746.042 1091.18,773.313 1091.18,785.886C1091.18,789.527 1094.13,792.478 1097.77,792.478C1114.34,792.478 1157.59,792.478 1174.15,792.478C1177.8,792.478 1180.75,789.527 1180.75,785.886C1180.75,773.313 1180.75,746.042 1180.75,733.469ZM1159.58,743.233C1161.96,741.596 1163,738.598 1162.14,735.839C1161.28,733.079 1158.73,731.201 1155.84,731.207C1143.62,731.23 1128.36,731.259 1116.25,731.282C1113.38,731.288 1110.84,733.15 1109.98,735.888C1109.11,738.625 1110.12,741.607 1112.46,743.262C1119.69,748.357 1127.47,753.845 1131.94,757C1134.2,758.59 1137.2,758.608 1139.48,757.046C1144.06,753.897 1152.1,748.371 1159.58,743.233Z" style="fill:rgb(57,255,100);"/>
            </g>
        </g>
    </g>
</svg>
