<?xml version="1.0" encoding="UTF-8" standalone="no"?>
<!DOCTYPE svg PUBLIC "-//W3C//DTD SVG 1.1//EN" "http://www.w3.org/Graphics/SVG/1.1/DTD/svg11.dtd">
<svg width="100%" height="100%" viewBox="0 0 21 27" version="1.1" xmlns="http://www.w3.org/2000/svg" xmlns:xlink="http://www.w3.org/1999/xlink" xml:space="preserve" xmlns:serif="http://www.serif.com/" style="fill-rule:evenodd;clip-rule:evenodd;stroke-linejoin:round;stroke-miterlimit:2;">
    <g transform="matrix(1,0,0,1,-259.361,-688.395)">
        <g transform="matrix(0.492662,0,0,0.492662,-391.559,-5740.67)">
            <g transform="matrix(0.313102,0,0,0.304382,940.245,12796.5)">
                <path d="M1306.82,836.262C1291.35,830.193 1274.16,830.193 1258.69,836.262C1258.69,836.262 1258.69,836.262 1258.69,836.262C1240.32,843.466 1226.15,858.51 1220.04,877.268C1213.94,896.027 1216.55,916.532 1227.16,933.161C1242.69,957.496 1259.05,983.139 1269.97,1000.25C1272.76,1004.62 1277.58,1007.26 1282.75,1007.26C1287.93,1007.26 1292.75,1004.62 1295.53,1000.25C1306.45,983.139 1322.82,957.496 1338.34,933.161C1348.95,916.532 1351.57,896.027 1345.46,877.268C1339.36,858.51 1325.18,843.466 1306.82,836.262C1306.82,836.262 1306.82,836.262 1306.82,836.262ZM1282.75,857.295C1307.29,857.295 1321.88,871.89 1321.88,896.425C1321.88,920.96 1307.29,935.554 1282.75,935.554C1258.22,935.554 1258.22,857.295 1282.75,857.295Z" style="fill:rgb(57,255,100);"/>
            </g>
        </g>
    </g>
</svg>
